/* XPM */
static char *_578841913168[] = {
/* columns rows colors chars-per-pixel */
"64 64 138 2 ",
"   c #191700",
".  c #1C1A00",
"X  c #201E00",
"o  c #252201",
"O  c #282602",
"+  c #2E2A01",
"@  c #322E02",
"#  c #373302",
"$  c #3A3602",
"%  c #3E3901",
"&  c #373309",
"*  c #3B3708",
"=  c #3D3909",
"-  c #423D02",
";  c #413D0B",
":  c #474102",
">  c #494302",
",  c #4E4801",
"<  c #46410A",
"1  c #4F4A0A",
"2  c #534D00",
"3  c #575107",
"4  c #595202",
"5  c #5F5802",
"6  c #57510A",
"7  c #585210",
"8  c #635C02",
"9  c #655E0A",
"0  c #6B6302",
"q  c #676008",
"w  c #6B640B",
"e  c #706700",
"r  c #746C02",
"t  c #776F0B",
"y  c #7D7304",
"u  c #7C740C",
"i  c #6E6810",
"p  c #827904",
"a  c #897F03",
"s  c #8D8203",
"d  c #918606",
"f  c #958A00",
"g  c #9A8F06",
"h  c #91870A",
"j  c #958B0B",
"k  c #988E0C",
"l  c #8D8417",
"z  c #968C11",
"x  c #9E9416",
"c  c #A29601",
"v  c #AB9E01",
"b  c #A99D0F",
"n  c #AFA201",
"m  c #ACA00C",
"M  c #B2A402",
"N  c #B6A801",
"B  c #BBAE09",
"V  c #BEB00B",
"C  c #ACA11F",
"Z  c #B0A416",
"A  c #BFB215",
"S  c #A09720",
"D  c #C4B503",
"F  c #C7B807",
"G  c #CBBC03",
"H  c #C4B60C",
"J  c #CABC13",
"K  c #C8BC2C",
"L  c #CFC008",
"P  c #D4C401",
"I  c #D8C702",
"U  c #DCCB01",
"Y  c #DBCB0A",
"T  c #CEC119",
"R  c #D4C512",
"E  c #DACB14",
"W  c #D1C31C",
"Q  c #DCCE1A",
"!  c #DFD01F",
"~  c #E4D303",
"^  c #E9D701",
"/  c #EDDB00",
"(  c #EAD90A",
")  c #E4D411",
"_  c #E7D816",
"`  c #EDDC13",
"'  c #E7D81B",
"]  c #EDDD19",
"[  c #F5E302",
"{  c #F9E602",
"}  c #FFEC02",
"|  c #F4E20C",
" . c #F8E60F",
".. c #FFED0B",
"X. c #F4E314",
"o. c #F8E714",
"O. c #FFED13",
"+. c #F5E51B",
"@. c #F8E719",
"#. c #FFEE1B",
"$. c #CDC129",
"%. c #EADB24",
"&. c #E4D731",
"*. c #FFEE24",
"=. c #F1E22A",
"-. c #FFEF2B",
";. c #FFF02E",
":. c #F3E434",
">. c #FFEF32",
",. c #F6E739",
"<. c #F6E83B",
"1. c #FEEF3A",
"2. c #FFF034",
"3. c #FFF03B",
"4. c #FFF143",
"5. c #FFF14C",
"6. c #FFF253",
"7. c #FFF35B",
"8. c #FFF363",
"9. c #FFF46B",
"0. c #FFF473",
"q. c #FFF57C",
"w. c #FFF684",
"e. c #FFF68B",
"r. c #FFF793",
"t. c #FFF897",
"y. c #FFF79B",
"u. c #FFF89D",
"i. c #FFF7A0",
"p. c #FFF8A4",
"a. c #FFF9AC",
"s. c #FFF9B4",
"d. c #FFFABC",
"f. c #FFFBC4",
"g. c #FFFBCB",
"h. c #FFFCD3",
"j. c #FFFCDB",
"k. c #FFFDE2",
/* pixels */
"k.k.k.j.h.h.g.g.f.d.s.s.a.i.u.t.e.e.w.q.0.9.8.8.6.6.5.4.3.3.2.-.-.*.#.#.O.O.......} } } } } } } } } } } ..} ......O.O.#.#.#.*.;.",
"k.k.j.j.h.h.g.f.d.d.s.a.p.i.y.t.r.w.q.q.0.9.8.7.7.5.5.4.3.3.>.-.*.*.#.#.O.O.....} ..} } } } } } } } } } } } ......O.O.#.#.*.*.;.",
"j.j.j.h.g.g.f.f.d.s.s.a.p.u.y.e.e.w.q.0.9.9.8.7.6.6.5.4.3.2.-.-.*.*.#.#.O.O.O.....} } } } } } } } } } } } ......O.O.O.#.#.*.*.;.",
"j.j.h.h.g.g.f.d.d.s.a.a.i.y.t.r.w.w.q.0.9.9.7.7.6.5.4.1.3.2.-.-.*.*.#.O.O.......} ..} } } } } } } } } } } ........O.O.#.#.#.*.-.",
"j.h.h.g.g.f.f.d.s.a.a.p.u.y.r.e.w.q.0.0.9.8.7.7.6.5.4.3.3.2.;.-.*.*.#.O.O.......} } } } } } } } } } } } ..........O.O.#.*.#.-.;.",
"h.h.g.g.f.f.d.s.s.a.p.p.u.t.e.w.w.q.0.0.8.8.7.6.5.4.4.3.3.-.-.*.*.#.#.O.O.........} } } } } } } } } } } ..} ....O.O.#.#.#.-.-.;.",
"h.g.g.f.f.d.d.s.a.a.p.u.t.r.e.w.w.q.0.9.8.8.7.6.5.4.4.3.2.-.-.*.#.#.#.O.........} } } } } } } } } } } } } } ....O.O.#.#.#.*.*.;.",
"g.f.f.d.d.s.s.a.a.p.u.y.r.e.e.w.q.0.9.8.8.7.6.5.5.4.3.3.2.-.-.*.#.#.O.O.........} } } } } } } } } } } } ......O.O.O.O.#.*.*.-.;.",
"f.f.d.d.s.s.a.a.p.u.y.t.e.e.w.q.0.0.9.8.8.7.6.5.5.4.3.2.-.-.*.*.#.#.O.O.........} } } } } } } } } } } } ......O.O.O.#.#.*.*.;.;.",
"f.d.d.s.s.a.a.p.p.u.t.r.e.w.q.q.0.9.8.8.7.6.6.5.4.3.2.2.;.;.*.#.#.#.O.O...} ..} } } } } } } } } } } } ..} ......O.O.#.#.*.;.;.;.",
"d.s.s.s.a.a.p.p.y.t.r.e.w.w.q.0.9.9.8.7.6.6.5.4.4.3.2.>.-.-.*.#.#.O.O...........} } } } } } } } } } ..} ......O.O.#.#.#.#.-.;.;.",
"s.a.a.a.p.p.u.y.t.e.e.w.w.q.0.0.9.8.8.7.6.5.5.4.3.2.2.;.-.*.*.#.#.O.O.......} } } } } } } } } } } } } } ....O.O.O.#.#.*.-.;.;.;.",
"a.a.a.p.p.u.y.t.e.e.e.w.q.0.0.9.8.8.7.7.6.5.4.4.3.2.>.-.;.*.#.#.O.O.O.......} } } } } } } } } } } } } ......O.O.O.#.#.*.*.-.;.;.",
"a.p.p.u.y.r.r.e.e.w.w.q.0.0.9.9.8.7.6.6.5.4.4.3.3.2.-.-.*.*.#.O.O.O.......} ..} } } } } } } } } } ..} ........O.O.#.*.*.-.;.;.2.",
"p.p.u.y.t.r.e.e.w.w.q.0.0.9.9.8.7.7.6.6.5.4.3.3.>.>.-.*.*.@.@.X.X.| | | [ / [ [ } } } } } } } } } ........O.O.O.#.#.#.*.*.;.2.2.",
"y.r.r.r.e.e.e.w.q.q.0.0.9.9.8.7.7.6.5.5.4.3.1.>.:.=.%.Q W A b k j s d d a p s M / } } } } } } } } } } ....O.O.O.#.#.*.*.;.;.2.3.",
"r.r.e.e.e.w.w.q.q.0.0.9.9.8.7.7.6.6.5.4.4.,.&.$.C l i 7 < * # o O o O o O O + 8 L } } } } } } } } } ......O.O.O.#.*.*.*.;.;.2.3.",
"e.e.e.w.w.q.q.0.0.9.9.8.8.7.7.6.5.5.4.4.,.K u 7 ; + O O o + + # % % $ % - > , y P } } } } } } } ..........O.O.#.#.#.*.;.;.;.2.3.",
"w.w.w.w.q.0.0.0.9.9.8.8.7.7.6.5.5.5.4.1.<.S < & < 1 6 w t j m V H F F D G P P ~ [ } } } } } } } } ......O.O.O.#.*.*.*.*.;.2.3.3.",
"w.q.q.0.0.0.0.9.9.8.8.7.7.6.5.5.4.4.3.1.,.S ; < x T Q _ ] X. . ...{ { { } { } } } } } } } } } ..........O.O.#.#.#.*.;.;.2.2.3.4.",
"q.0.0.0.0.9.9.8.8.7.7.6.6.5.5.4.4.3.1.>.>.Z = * Z +.@.#.O.O.......} } } } } } } } } } } } } ..} ....O...O.#.#.#.#.*.;.;.2.2.3.4.",
"0.0.9.9.8.8.8.8.7.6.6.6.5.5.4.4.3.1.1.>.=.K = + z +.O.O.........} ..} } } } } } } } } } } } } ..........O.O.#.#.-.*.;.2.2.3.3.4.",
"9.9.8.8.8.7.7.7.6.6.5.5.4.4.4.3.1.2.-.-.*.$.< o u X.O.O.O.....} ..} } } } } } } } } } } } } } ......O.O.O.#.#.#.*.-.;.;.3.3.4.4.",
"8.8.8.7.7.7.6.6.6.5.5.4.4.4.3.2.2.-.-.-.*.! 6 o w _ ..O.........} } } } } } } } } } } } } } ........O.O.#.#.#.-.*.-.;.;.3.3.4.5.",
"7.7.7.7.6.6.6.5.5.4.4.4.3.3.2.2.>.-.*.*.*.' 9 o 6 Q ..........} ..} } } } } } } } } } } ..} ........O.O.#.#.#.*.-.;.2.2.3.4.4.5.",
"6.6.6.6.5.5.5.4.4.4.3.3.2.2.>.>.-.-.*.*.#.] u o : L ........} } } } } } } } } } } } } } } ......O.O.O.#.#.*.*.*.-.;.2.2.3.4.5.5.",
"6.5.5.5.5.4.4.4.3.3.3.2.2.>.;.;.*.*.*.#.#.X.h O # B  .{ { { [ [ [ [ } } } } } } } } } ....} ....O.O.O.#.#.#.*.;.;.;.2.3.4.4.5.5.",
"5.5.4.4.4.4.3.3.3.2.2.2.-.;.*.*.*.*.#.#.#.@.m + + g L H B M n c f c P { } } } } } } } } ......O.O.O.O.#.*.*.*.-.;.;.3.3.4.4.5.6.",
"4.4.4.3.3.3.3.2.2.>.-.-.-.*.*.#.#.#.#.#.O.o.V $ o 5 0 2 % # + + o % s / } } } } } } ..} ......O.O.O.#.#.*.*.-.-.2.2.3.3.4.5.6.6.",
"1.1.3.3.3.2.2.>.-.-.;.*.*.*.*.#.#.#.O.O.O...Y 2 . : 5 > # + # # $ , c [ } } } } } } } ....O...O.O.#.#.*.*.*.;.;.2.3.3.4.4.5.6.6.",
"1.>.2.2.>.-.-.-.-.*.*.*.*.#.#.#.#.O.O.O.....( 0 o > v N v v n N D G ^ { } } } } } ..........O.O.#.#.#.*.*.;.;.2.3.3.4.4.5.6.6.7.",
">.>.>.-.-.-.-.*.*.*.*.*.#.#.#.O.O.O.........( s o % D [ [ [ [ { } { { } } } } ............O.O.O.#.#.*.*.*.;.;.2.3.3.4.4.5.6.7.7.",
";.;.*.;.;.*.*.*.*.#.#.#.#.O.O.O.............[ c + @ n { } } } } } } } } } } ..} ........O.O.#.#.#.#.*.*.-.>.>.3.3.4.4.5.5.6.7.8.",
"*.*.*.*.*.*.#.#.#.#.#.O.O.O.O.O.............{ M @ + c [ } } } } } } } } } } } ..........O.O.O.#.#.*.*.;.-.2.2.3.3.4.5.5.6.7.7.8.",
"*.*.*.#.#.#.#.#.O.#.O.O.O...............} } { D % o s [ } } } } } } } } } } ........O.O.O.O.#.#.*.*.;.;.-.2.3.3.4.4.5.6.6.7.8.8.",
"#.#.#.#.#.O.O.O.O.O.O.O.............} ..} } { P > o y / } } } } } } } } ....} ......O.O.#.#.#.*.*.*.-.-.>.3.3.4.4.5.6.6.7.7.8.9.",
"#.#.O.#.O.O.O.O.O...........} ....} } } } } } U , o r / } { } } } { } { } ..} ....O.O.O.#.#.*.*.*.-.;.;.2.3.3.4.4.5.6.7.7.8.8.9.",
"O.O.O.O.O.O...O...............} } } } } } } } U 4 o 0 U ^ ^ ~ U I P F F L Y ( | o.O.O.#.#.#.*.*.;.-.2.2.3.3.4.4.5.6.6.7.8.8.9.0.",
"O.O...O.O.................} } } } } } } } } } U 4 . % e e 0 5 4 , : - % - 3 t j H X.#.#.#.*.*.*.-.>.2.3.3.4.4.5.6.6.7.7.8.9.9.0.",
"..............} ....} } } } } } } } } } } } { ~ 0     o o o o X o o o o o o o + q E @.#.*.*.-.-.-.>.2.3.4.4.5.5.6.7.7.8.8.9.0.q.",
"........} ..} ..} } } } } } } } } } } } } } } [ n 2 % : , 4 5 q r p s h y q > < u E *.*.*.-.-.;.2.2.3.1.4.5.5.6.6.7.7.8.9.0.0.q.",
"......} } ..} } } } } } } } } } } } } } } } } } [ I L P I ~ ~ ( ( | ( X.` ) R J Q +.@.*.*.;.-.2.2.3.4.4.4.5.5.6.7.7.8.9.0.0.q.q.",
"} ..} ..} } } } } } } } } } } } } } } } } } } } } } } } } }  .} ....O.O.O.O.@.#.#.#.*.;.-.-.2.>.3.1.4.4.5.6.6.7.7.8.9.9.0.q.q.w.",
"} } } } } } } } } } } } } } } } } } } } } } } } } } ..} ............O.O.O.#.#.#.*.*.*.;.;.>.2.3.3.4.4.5.5.6.7.7.8.8.9.0.0.q.q.w.",
"} } } } } } } } } } } } } } } } } } } } } } } } ..} ..........O.O.O.O.O.#.#.#.*.*.*.-.;.>.2.3.3.4.4.5.5.6.7.7.8.8.9.0.0.q.q.w.e.",
"} } } } } } } } } } } } } } } } } } } } } } } ..} } } ..........O.O.O.#.#.#.*.*.*.;.;.>.2.2.3.1.4.5.5.6.6.7.7.8.9.9.0.q.q.w.e.e.",
"} } } } } } } } } } } } } } } } } } } } } } } ............O.O.O.O.#.O.#.*.*.*.*.-.-.>.2.3.3.4.4.4.5.6.6.7.7.8.9.9.0.0.q.w.w.e.r.",
"} } } } } } } } } } } } } } } } } } } } ..} ..} ..........O.O.O.O.#.#.*.*.*.*.-.-.2.2.3.3.3.4.5.5.6.6.7.7.8.9.9.0.0.q.w.w.e.e.t.",
"} } } } } } } } } } } } } } } } } } ..} ..........O...O.O.O.#.#.#.#.*.*.*.-.;.2.>.>.1.1.4.4.4.5.6.6.7.7.8.8.9.0.0.q.w.w.e.e.t.t.",
"} } } } } } } } } } } } } } } } } ..} ..} ......O...O.O.O.O.#.#.#.#.*.*.-.-.-.>.>.1.4.4.4.5.5.6.6.7.7.8.9.9.0.0.q.q.w.e.e.r.t.u.",
"} } } } } } } } } } } } ..} ..} ............O...O.O.O.O.#.#.#.#.*.*.*.-.-.>.>.>.3.3.1.4.5.5.6.6.7.7.8.9.9.9.0.q.q.w.w.e.r.t.u.i.",
"} } } } } } } } } } } ..} } ................O.O.O.O.#.#.#.#.*.*.*.-.-.-.2.2.2.3.4.4.4.5.5.6.6.7.7.8.8.9.0.0.q.q.w.e.e.r.t.u.i.p.",
"} } } } } ..} ..} ....} ............O...O.O.O.O.O.#.#.#.*.*.*.-.-.-.-.2.2.3.3.3.4.4.5.5.6.7.7.7.8.9.9.0.0.0.q.w.w.e.r.t.y.i.p.a.",
"} } } ....} } ....} ..............O.O.O.O.O.#.#.#.#.#.#.#.-.*.;.-.>.2.2.2.3.4.4.4.5.6.6.6.7.7.8.8.9.9.0.q.q.w.w.e.r.t.t.u.i.a.a.",
"....} } } ................O.O.O.O.O.O.O.O.#.#.#.#.#.*.*.-.-.-.;.>.>.3.3.4.4.4.5.5.5.6.6.7.7.8.8.9.0.0.q.q.w.w.e.r.r.t.i.i.a.a.a.",
"} ..................O...O...O.O.O.O.#.#.#.#.#.*.-.*.-.-.;.;.;.;.2.3.3.3.4.4.4.5.6.6.7.7.8.8.8.9.0.0.q.q.w.w.e.r.t.t.u.i.p.a.a.s.",
"............O...O.O.O.O.O.O.#.O.#.#.#.#.#.*.*.*.*.-.-.-.;.>.2.>.3.3.3.4.5.5.5.6.6.7.7.8.8.8.9.0.0.q.q.w.w.e.e.r.t.u.p.p.a.a.s.s.",
"..O...O.O.O.O.O.O.O.O.O.#.O.#.#.#.#.#.*.*.*.*.-.-.-.-.>.2.3.3.1.3.4.4.5.5.5.6.6.7.7.8.8.9.9.0.0.q.q.w.w.e.r.t.y.u.p.p.a.s.s.d.d.",
"O.O.O.O.O.O.O.O.O.O.#.#.#.#.#.*.*.*.*.*.*.-.;.-.>.>.2.2.3.3.4.4.4.5.5.5.5.6.7.7.7.8.8.9.9.0.0.q.w.w.e.e.r.r.y.y.p.p.a.a.s.d.d.d.",
"O.O.O.O.#.O.#.#.#.#.#.#.#.*.#.*.*.*.*.-.-.-.-.>.>.2.3.3.3.3.4.4.5.5.5.6.6.7.7.8.8.9.9.0.0.q.q.w.w.w.e.e.t.t.y.p.p.a.a.s.s.d.d.f.",
"#.#.#.#.#.#.#.#.*.#.*.#.*.*.*.*.-.-.-.-.2.2.2.2.3.3.3.3.4.4.4.5.5.6.6.7.7.7.8.8.9.9.0.0.0.q.w.w.e.e.r.t.y.u.p.a.a.a.s.s.d.d.f.g.",
"#.#.#.#.#.*.*.#.*.*.*.*.;.*.;.;.-.;.>.>.>.2.2.3.3.4.4.4.4.5.5.6.6.6.7.7.8.8.9.9.9.0.0.q.q.w.w.e.e.r.r.y.u.p.p.a.s.s.s.d.d.f.f.g.",
"*.*.*.*.*.*.*.*.*.;.*.;.;.;.;.;.2.>.>.3.3.3.4.4.4.4.5.5.5.6.6.6.7.7.7.8.8.9.9.9.0.0.q.q.w.e.e.e.r.t.y.u.p.p.a.a.s.s.d.f.f.g.g.g.",
"*.*.*.*.*.*.;.;.*.;.;.;.;.2.2.2.2.3.3.3.3.3.4.4.4.5.5.5.6.6.7.7.7.7.8.8.9.0.0.0.q.q.q.w.e.e.r.r.r.y.p.p.p.a.s.s.s.d.d.f.f.g.g.h."
};
