/* XPM */
static char *_578841902899[] = {
/* columns rows colors chars-per-pixel */
"64 64 143 2 ",
"   c #040200",
".  c #0C0500",
"X  c #110700",
"o  c #120902",
"O  c #1A0B01",
"+  c #210F01",
"@  c #231103",
"#  c #2C1300",
"$  c #331600",
"%  c #351903",
"&  c #3D1B02",
"*  c #351F0E",
"=  c #3B1F0A",
"-  c #451E01",
";  c #462105",
":  c #4B2203",
">  c #452209",
",  c #4A260C",
"<  c #522401",
"1  c #5C2902",
"2  c #652C02",
"3  c #6D3104",
"4  c #773402",
"5  c #7B3603",
"6  c #733609",
"7  c #763A0D",
"8  c #6B3C19",
"9  c #783E10",
"0  c #843900",
"q  c #8B3D03",
"w  c #843E09",
"e  c #8D4108",
"r  c #964203",
"t  c #9A4505",
"y  c #9B4709",
"u  c #8B4714",
"i  c #A34600",
"p  c #A94A01",
"a  c #A34D0C",
"s  c #B84E00",
"d  c #BB5101",
"f  c #B9540A",
"g  c #A34F11",
"h  c #A65314",
"j  c #AD5614",
"k  c #A5551A",
"l  c #A7591E",
"z  c #B05410",
"x  c #BC5B10",
"c  c #BA5F19",
"v  c #834D24",
"b  c #9B5724",
"n  c #9E5B2A",
"m  c #A45A23",
"M  c #C35502",
"N  c #CB5600",
"B  c #CB5A05",
"V  c #C45909",
"C  c #C95C0A",
"Z  c #D45D03",
"A  c #DA5E00",
"S  c #CE610F",
"D  c #DC6104",
"F  c #DB650B",
"G  c #DB680F",
"H  c #C9691F",
"J  c #D46613",
"K  c #D36815",
"L  c #DC6A13",
"P  c #D56B1C",
"I  c #E36202",
"U  c #EA6501",
"Y  c #E76807",
"T  c #EA6806",
"R  c #E56709",
"E  c #E56A0C",
"W  c #E86808",
"Q  c #F36A03",
"!  c #FE6E01",
"~  c #F36E0A",
"^  c #FF7105",
"/  c #F6710C",
"(  c #FF740B",
")  c #E66D13",
"_  c #EB7216",
"`  c #E4711C",
"'  c #EB7218",
"]  c #F67412",
"[  c #FE7711",
"{  c #FF7914",
"}  c #F4781A",
"|  c #FE7D1B",
" . c #CB6D25",
".. c #DA7020",
"X. c #C17136",
"o. c #D77B36",
"O. c #D27E3E",
"+. c #EA7B25",
"@. c #F37D22",
"#. c #FD7F20",
"$. c #E57F33",
"%. c #FF801F",
"&. c #F78027",
"*. c #FF8224",
"=. c #FE862A",
"-. c #FF882E",
";. c #F58532",
":. c #F88630",
">. c #FF8B33",
",. c #F78B3A",
"<. c #FE8E3A",
"1. c #FF913D",
"2. c #EC8E46",
"3. c #F38E43",
"4. c #FF9443",
"5. c #FE9749",
"6. c #FF994C",
"7. c #FF9D53",
"8. c #FE9F58",
"9. c #FFA057",
"0. c #FFA25C",
"q. c #FFA663",
"w. c #FFA866",
"e. c #FFAB6B",
"r. c #FFAE72",
"t. c #FFB176",
"y. c #FFB47C",
"u. c #FFB781",
"i. c #FFB985",
"p. c #FFBD8B",
"a. c #FFBF90",
"s. c #FFC08F",
"d. c #FFC294",
"f. c #FFC69A",
"g. c #FFC89F",
"h. c #FFCAA3",
"j. c #FFCEA9",
"k. c #FFD1AD",
"l. c #FFD4B3",
"z. c #FFD7BB",
"x. c #FFD9BD",
"c. c #FFDDC4",
"v. c #FFE2CA",
/* pixels */
"v.v.c.x.x.l.k.j.h.g.f.s.s.s.y.y.t.r.e.q.q.9.9.6.4.1.1.<.>.-.*.%.%.%.%.^ %.%.^ ^ ^ ^ ! ^ ! ! ! ! ! ! ! ! ^ ^ ( ^ ( [ [ [ { | | #.",
"c.c.x.z.l.k.k.j.g.g.d.s.s.i.y.y.t.e.w.q.9.9.6.6.4.4.1.>.-.-.-.%.%.%.%.^ ^ ^ ( ^ ^ ^ ! ! ! ! ! ! ! ! ! ! ! ^ ^ / ( ( [ { | | #.#.",
"c.c.z.l.l.k.j.h.g.f.s.s.s.y.y.y.r.e.w.q.9.9.6.6.4.1.>.>.-.*.*.%.%.%.%.%.%.^ ^ ^ ^ ^ ! ! ! ! ! ! ! ! ! ! ^ ^ ^ ( ( [ [ { | | #.#.",
"x.x.l.l.k.j.h.g.g.d.s.s.i.y.y.r.e.w.q.0.9.9.6.4.4.1.>.>.-.-.%.%.%.%.%.%.^ ^ %.^ ^ ^ ! ! ^ ! ! ! ! ! ! ! ! ^ ( ^ [ [ [ { | | #.=.",
"z.l.k.k.k.h.g.f.s.s.s.s.y.y.y.e.e.w.9.9.9.6.6.4.1.1.>.-.-.*.%.%.%.%.%.^ ( ( ^ ^ ^ ! ! ! ! ! ! ! ! ! ^ ! ^ ( ( / ( ( { { | | #.*.",
"l.l.k.j.j.g.f.f.s.s.i.i.y.y.t.e.w.w.q.9.6.6.4.4.1.>.-.-.-.*.%.%.^ %.^ %.( ^ ^ ^ ! ! ! ! ! ! ! ! ! ! ! ! ^ ^ ^ ( ( { { { { #.#.=.",
"k.k.j.j.g.f.f.s.s.s.i.y.y.t.r.w.w.9.9.9.6.6.4.1.1.>.-.-.*.*.%.%.%.( ^ ( ^ ^ ^ ^ ! ! ! ! ! ! ! ! ! ! ! ^ ^ ^ ( ( { { { | | #.#.=.",
"k.j.g.g.f.d.d.s.s.y.y.y.t.r.w.w.q.9.9.6.6.6.4.1.>.>.-.-.%.%.%.%.%.( %.( ( %.^ ^ ! ! ! ! ! ! ! ! ! ! ! ! ^ ( ( [ ( { { | | #.#.=.",
"j.h.g.g.d.s.s.s.y.y.y.t.r.r.w.0.0.9.7.6.4.1.1.1.>.-.=.=.%.%.%.( %.%.^ ^ ( ^ ^ ^ ^ ^ ! ! ! ! ! ! ! ^ ! ^ ^ ^ ( ( ( { { | | #.*.=.",
"g.f.f.d.s.s.i.i.i.y.t.r.e.w.w.0.9.7.7.6.6.1.1.>.-.-.=.*.%.%.%.%.^ ( %.^ ^ ^ ^ ^ ^ ! ! ! ! ! ! ! ! ! ^ ^ ( ( ( ( { { | | #.#.*.=.",
"f.f.s.s.s.i.u.u.y.t.r.e.e.w.0.0.7.7.6.6.1.1.<.>.-.-.%.%.%.%.%.( ^ %.^ ^ ^ ^ ^ ! ! ! ! ! ! ! ! ! ! ^ ^ ^ ^ ( ( [ { { { | #.#.=.=.",
"s.s.s.s.i.i.u.y.y.r.r.w.w.0.0.9.7.6.4.4.1.<.>.>.-.=.%.%.%.%.[ %.%.( ( ^ ^ ^ ^ ! ! ! ! ! ! ! ! ! ! ! ^ ^ ( ( ( [ [ { { #.#.*.=.=.",
"s.s.i.i.u.y.y.t.r.e.w.w.0.0.9.7.6.6.1.1.<.<.-.:.=.&.%.%.%.[ [ [ ^ ^ ^ ^ ^ ^ ! ^ ! ! ! ! Q Q ! ! ^ ^ ^ ^ ( ( { [ { | | | *.*.=.:.",
"s.i.u.u.y.y.t.e.e.w.w.q.0.9.7.6.6.4.4.1.<.>.-.:.%.&.%.%.%.[ [ [ ( ( %.^ ^ ^ ! ^ ! ! ! A q p U ! ^ ^ ^ / ^ ( ( { { | | #.*.=.=.>.",
"i.i.y.y.t.r.e.e.w.w.q.9.7.7.6.6.6.1.<.<.>.-.&.H u h _ %.%.[ { ( ( ( ^ ^ ^ ^ ^ ^ ! ! Q q # - M ! ^ ^ ^ / ( { { { { | | #.*.=.=.>.",
"y.y.t.t.r.e.e.w.q.0.0.7.7.6.6.4.1.<.<.<.-.=.&.9 @ ; K { { [ [ ( ( ^ ^ ^ ^ ^ ^ ^ ! ! U 2 X O p Q ^ ^ ^ ( ^ ( { { { | *.#.*.=.=.>.",
"t.t.r.e.e.w.w.q.0.9.9.9.6.6.4.4.1.>.>.>.-.=.&.% . + x { [ [ [ ( ( ^ ^ ! ! ! ! ! ! ! U <   X t Q ^ ^ ( ( ( [ { | | | #.=.=.=.:.>.",
"t.e.e.e.w.w.q.9.9.9.6.6.6.1.4.1.1.>.-.-.=.%.c O   . j ] [ ( ( ( ^ ^ ^ ! ! ! ! ! ! ! U -   . r Q ^ / ( ( [ [ { { { #.#.#.=.=.>.<.",
"e.e.q.w.w.9.9.9.9.6.6.6.4.1.1.1.>.>.-.=.=.%.l .     w ] [ ( ( ^ ^ ^ ! ! ! ! ! ! ! ! I -     q Q ^ ^ ( ( [ [ { { #.#.#.=.=.>.>.<.",
"w.q.q.9.9.9.9.6.6.6.4.4.1.1.1.>.>.-.=.=.%.%.c o     & F ( ( ( ^ ^ ! ! ! ! ! ! ! ! ! I $     5 Q ( / ( ( [ [ | | #.#.#.=.=.:.>.<.",
"q.9.9.9.9.9.6.6.6.4.4.1.1.<.>.-.-.=.%.%.%.%.K O     . t ~ ( ^ ^ ^ ! ^ ! ! ! ! ! ! ! A #     4 ~ ( ( ( [ { { | | #.*.=.=.-.>.>.<.",
"9.9.9.9.6.6.6.4.4.1.1.<.<.>.-.-.=.=.%.%.%.%.K %       % B ^ ^ ^ ^ ! ! ^ ! ! ! ! ! ! I #     4 ~ ( ( ( [ [ | { #.#.*.=.=.>.>.<.4.",
"9.6.9.6.6.4.4.4.1.1.<.<.-.-.-.=.%.=.%.%.%.%.L %       . 2 I ! ^ ^ ! ! ! ! ! ! ! ! ! I #     5 ~ ( ( [ { { { #.#.*.*.=.=.>.>.<.4.",
"6.6.6.4.4.4.1.1.<.>.>.-.-.-.-.*.%.%.%.%.[ %.G %   . .   X e Q ^ ! ^ ! ! ! ! ! ! ! ! I -     q ~ ( ( [ { | | | #.*.=.=.>.>.<.<.4.",
"4.4.4.4.1.1.1.1.>.>.-.-.%.*.%.*.%.%.%.%.[ [ F $   o %     O M Q ! ! ! ! ! ! ! ! ! ! Y -   . r / ( ( { { | | *.*.=.=.=.>.<.<.4.4.",
"4.4.1.1.1.1.-.-.-.-.-.-.%.%.%.%.%.%.%.( %.( F %   O 4 .     < I ! ! ! ! ! ! ! ! ! ^ Y <   X y / { { { | | | #.*.=.=.>.>.<.1.4.5.",
"1.<.1.>.<.-.-.-.-.-.*.*.%.%.%.%.%.( ( ( [ ( S $   o p 1     X p Q ! ! ! ! ! ! ! ^ ! W <   X t / { [ { | | *.*.*.=.=.>.<.<.4.4.5.",
"<.<.>.>.-.-.-.-.*.*.*.%.%.%.%.%.%.%.^ %.( ( F $   O d M $     - A ! ! ! ! ! ! ! ! ! W <   X y ] { { { | | *.*.=.=.>.>.<.<.4.4.6.",
"-.-.-.-.-.*.*.*.*.*.%.%.%.%.%.^ ^ ( %.^ ^ ^ F $   O d Q i +   X 0 U ! ! ! ! ! ! ! ^ E :   . y ] { { | | *.*.*.=.:.>.<.<.4.4.5.6.",
"-.-.*.-.-.*.%.%.%.%.%.%.%.%.%.^ %.( ( ( ( ^ D $   O d Q U 3 X   # s Q ! ! ! ! ! ^ ( W :   X a ] { { | #.*.*.=.-.:.<.<.<.4.5.6.7.",
"-.-.*.-.%.%.%.%.%.%.%.%.^ %.^ %.^ %.^ ^ ^ ^ D %   O d Q Q Z &     < A ! ! ! ^ ^ ^ ^ R :   X a { | | #.#.*.=.=.:.>.<.<.4.4.5.6.7.",
"%.%.%.%.%.%.%.%.%.%.%.%.%.^ ^ ( ^ ^ ^ ^ ^ ^ D %   O d ^ ^ Q t O   O q T ^ ^ ^ ^ ( ^ R -   X a } | | #.*.=.=.:.>.<.<.4.4.5.6.7.8.",
"%.%.%.%.[ %.%.[ { [ [ ( { ( { ( ( ( ^ ^ ! Q A $   O s ! ! ! I 2 .   $ M ! ^ ^ ^ ( ( R -   o a | | #.#.=.=.:.>.>.<.1.4.4.6.7.7.8.",
"%.%.( %.%.%.( %.{ [ [ { ( ( ^ ^ ^ ^ ^ ^ ! ! I $   O s Q ! ! ! N $     1 D ! ^ ( ( ^ ) -   o g | #.#.*.=.=.:.>.<.<.4.4.5.6.7.8.8.",
"( %.( %.( ( [ [ [ [ { ^ ^ ^ ( ^ ^ ^ ! ! ! ! A #   O s ! ! ! ! Q q O   O t ~ ( ( ( { ) >   X g @.#.*.*.=.=.>.<.<.1.4.5.6.7.7.0.q.",
"%.( %.( %.( ( ( ( ( ( ^ ( ^ ^ ^ ^ ! ! ! ! ! I $   O M Q ! ! ! ! U 2 .   $ B / / ( [ ) -   o h #.*.=.=.:.>.>.<.<.4.5.5.6.7.8.0.q.",
"( ( %.^ ( ( ( ( ^ ( ^ ^ ^ ^ ^ ^ ! ! ^ ! ! Q A $   O s ! ! ! ! ! Q M #   . 3 W [ [ { ) >   X k #.*.=.=.>.>.<.<.4.5.5.6.7.7.0.0.w.",
"( ( ( ( ( ( ( ( ^ ( ^ ^ ! ! ! ! ! ^ ! ! ! ! A $   O s ! ! ^ ! ^ ! ~ q X   O a ] { { ) -   o k #.=.=.>.>.>.<.4.4.5.5.7.7.0.q.w.w.",
"%.( ( ^ ( ^ ^ ^ ^ ^ ^ ^ ! ! ! ! ! ! ! ! ! ! A $   X s ! ! ! ^ ^ ^ ^ F <     & C [ { ` >   o k @.=.=.>.<.<.<.4.5.5.7.8.8.8.q.w.e.",
"^ ^ ( ^ ^ ^ ^ ^ ^ ^ ^ ^ ! ! ! ! ! ! ! ! ! ! A $   O s ! ^ ^ ^ ^ ^ ( / f #   X 6 _ | ` >   o m @.>.>.>.<.4.4.5.5.5.7.8.8.q.w.e.r.",
"^ ^ ^ ^ ^ ^ ^ ^ ! ! ! ! ! ! ! ! ! ! ! ! ! ! Z $   O s ! ^ ^ ^ ^ ( ( ( ~ w X   @ z | ` -   o m =.>.:.>.<.4.5.5.2.7.7.8.q.q.e.e.r.",
"^ ^ ^ ^ ^ ^ ! ! ! ! ! ! ! ! ! ! ! ! ! ! ! ! Z $   O M Q ^ ^ ( ^ ( [ [ ] J :     , P ..,   o l :.>.>.4.4.4.5.6.7.8.8.0.w.w.e.r.t.",
"^ ^ ^ ^ ^ ! ! ! ! ! ! ! ! ! ! ! ! ! ! ! ! Q N $   + M ! ( ( ( ( ( ( [ { ] z +   o w ..-   o m ;.<.4.4.4.5.5.7.7.8.0.w.w.e.r.r.y.",
"^ ^ ^ ^ ! ^ ! ! ! ! ! ! ! ! ! ! ! ! ! ! ! ! Z #   O V / ^ ( ( ( [ { [ { | ' 7     @ k ,   X m >.<.<.4.5.6.6.7.8.0.q.w.w.e.r.t.y.",
"! ! ! ! ! ! ! ! ! ! ! ! ! ! ! ! ! ! ! ! ! ! B #   + C ^ ( ( ( ( [ { { | | } P =   . , *   o m 3.4.4.5.5.6.7.8.0.q.q.e.e.r.t.y.u.",
"! ! ! ! ! ! ! ! ! ! ! ! ! ! ! ! ! ! ^ ! ! ! Z #   O C / ( ( { [ { { { | | #.@.k O   o @   o m 3.4.4.5.6.7.8.8.q.q.w.e.r.t.y.u.i.",
"! ! ! ! ! ! ! ! ! ! ! ! ! ! ! ! ! ^ ! ^ ^ ^ Z $   # C / { [ { { { | | | #.#.#.+.8 .   .   o n 2.5.5.6.7.8.8.0.q.w.e.r.t.y.u.u.i.",
"! ! ! ! ! ! ! ! ! ! ! ! ! ! ! ^ ! ^ ^ ^ / ( E 1 O - F ( [ { { | | | | #.#.=.=.=. .*       o n 7.5.6.7.8.0.0.q.q.e.r.r.t.y.i.i.p.",
"! ! ! ! ! ! ! ! ! ! ! ^ ! ! ^ ^ ^ ^ ^ ^ ( ( ~ V q f ] [ { | { | | | #.*.=.=.=.:.;.b O     * X.3.6.7.7.8.0.q.w.e.e.r.t.u.u.i.p.a.",
"! ! ! ! ! ! ! ! ! ! ! ^ ^ ^ ^ ^ ^ ( ( ( ( ( ( [ ] ] | { { | | | #.*.*.*.=.=.:.:.,.$.8 o O v 2.7.7.7.8.0.q.q.e.r.r.t.u.u.i.i.a.a.",
"! ! ! ! ! ! ! ^ ^ ^ ^ ^ ^ ^ / ^ ( ^ ( ( [ ( [ [ [ { [ | | | | #.*.*.=.=.=.:.>.<.<.,.o.v v O.2.8.8.8.0.q.w.e.e.r.t.y.u.u.p.a.a.a.",
"! ! ! ! ^ ! ^ ! ^ ^ ^ ^ ^ / ^ / ( ^ { ( [ [ [ { { { | } | #.#.*.*.=.=.=.>.>.>.<.<.4.5.2.2.7.7.7.8.0.0.e.e.e.r.t.u.u.u.i.a.a.a.f.",
"! ! ! ^ ^ ^ ^ ^ ^ ^ ( ^ ( / ( ( ( ( { ( { { { { | | | #.#.#.*.=.=.=.:.>.>.>.<.,.4.4.4.5.7.7.7.0.0.q.q.e.e.r.t.u.u.i.i.a.a.a.f.h.",
"^ ^ ^ ^ ^ ^ ( ^ ( ^ ( ( ( ( ( ( { ( [ { { { | | | | #.=.*.*.=.=.=.>.:.>.>.<.4.4.5.5.6.6.7.8.8.0.q.e.e.r.r.t.t.u.i.i.p.a.a.f.f.h.",
"^ ^ ^ ^ ( ( ^ / ( ( ( ( [ [ [ [ { { { { | | | | #.#.#.#.=.=.=.=.>.>.>.<.<.4.4.5.5.6.7.7.8.8.0.q.q.e.e.r.t.t.u.u.i.p.a.f.a.f.h.h.",
"( ( ( ( ( ( ( ( ( ( [ [ [ [ [ { { | { | | | %.#.#.#.=.=.=.=.>.>.>.<.<.1.4.4.4.5.6.7.7.8.8.q.q.w.e.e.r.t.u.u.u.i.p.a.a.a.h.h.h.j.",
"^ ( ( ( ( ( { ( [ [ [ [ { { { | | | | | #.#.*.*.=.=.=.-.:.:.>.<.<.<.<.4.4.5.5.6.2.q.8.8.q.q.q.e.r.r.r.u.u.i.i.a.a.a.a.f.h.h.j.j.",
"[ [ ( ( [ { ( { { { { { | { { | | | #.#.*.*.*.=.=.=.=.:.>.>.<.<.<.4.4.5.5.6.7.7.8.0.q.q.q.e.e.r.r.r.y.u.u.i.a.a.a.a.f.h.h.j.j.l.",
"[ [ [ { { { { { { { | | | | #.#.| #.*.*.*.=.=.=.=.>.>.>.>.<.,.4.4.4.5.5.6.7.7.7.2.e.q.q.e.e.e.r.t.u.u.u.i.p.a.a.f.f.h.h.j.j.l.l.",
"{ { { { { { { | | | | | | #.#.#.*.*.=.=.=.=.=.>.>.>.>.<.<.4.4.4.5.5.5.7.7.7.8.0.q.q.q.q.e.r.t.y.u.u.i.p.p.a.a.f.h.h.h.j.j.j.l.z.",
"{ { { | | | | | | | #.#.#.#.=.=.=.=.=.=.=.:.>.>.>.<.<.4.4.4.4.5.6.6.6.7.7.8.0.q.q.e.e.r.r.r.y.u.u.i.i.a.a.a.f.f.h.j.j.j.l.j.z.c.",
"{ | | | | | | #.#.#.*.*.#.#.=.=.=.=.=.:.>.>.<.<.<.<.<.4.4.5.5.5.6.7.8.8.8.q.q.w.q.e.r.r.r.y.u.u.u.i.a.a.a.f.f.h.h.j.j.j.z.z.l.c.",
"#.#.#.#.*.#.*.#.*.=.=.=.=.=.=.:.=.>.>.>.<.<.<.<.4.4.4.5.5.5.6.7.7.8.8.q.0.q.w.e.e.r.r.t.u.u.u.i.a.a.a.a.f.f.h.h.j.j.l.l.l.z.c.c.",
"#.#.#.#.*.*.*.*.=.=.=.=.=.:.:.>.>.<.<.<.<.<.,.4.4.4.5.6.6.7.7.8.8.8.0.q.q.e.e.e.r.r.u.t.u.u.i.p.a.a.a.f.f.h.h.j.j.l.j.l.c.z.c.c."
};
