/* XPM */
static char *_580903533547[] = {
/* columns rows colors chars-per-pixel */
"64 64 256 2 ",
"   c black",
".  c #0000A8",
"X  c #00A800",
"o  c #00A8A8",
"O  c #A80000",
"+  c #A800A8",
"@  c #A85400",
"#  c gray66",
"$  c gray33",
"%  c #5454FC",
"&  c #54FC54",
"*  c #54FCFC",
"=  c #FC5454",
"-  c #FC54FC",
";  c #FCFC54",
":  c gray99",
">  c #ECECEC",
",  c gainsboro",
"<  c #D0D0D0",
"1  c #C0C0C0",
"2  c #B4B4B4",
"3  c gray66",
"4  c #989898",
"5  c gray55",
"6  c #7C7C7C",
"7  c gray44",
"8  c #646464",
"9  c gray33",
"0  c #484848",
"q  c gray22",
"w  c #2C2C2C",
"e  c #202020",
"r  c #FC0000",
"t  c #EC0000",
"y  c #E00000",
"u  c #D40000",
"i  c #C80000",
"p  c #BC0000",
"a  c #B00000",
"s  c #A40000",
"d  c #980000",
"f  c #880000",
"g  c #7C0000",
"h  c #700000",
"j  c #640000",
"k  c #580000",
"l  c #4C0000",
"z  c #400000",
"x  c #FCD8D8",
"c  c #FCB8B8",
"v  c #FC9C9C",
"b  c #FC7C7C",
"n  c #FC5C5C",
"m  c #FC4040",
"M  c #FC2020",
"N  c #FC0000",
"B  c #FCA85C",
"V  c #FC9840",
"C  c #FC8820",
"Z  c #FC7800",
"A  c #E46C00",
"S  c #CC6000",
"D  c #B45400",
"F  c #9C4C00",
"G  c #FCFCD8",
"H  c #FCFCB8",
"J  c #FCFC9C",
"K  c #FCFC7C",
"L  c #FCF85C",
"P  c #FCF440",
"I  c #FCF420",
"U  c #FCF400",
"Y  c #E4D800",
"T  c #CCC400",
"R  c #B4AC00",
"E  c #9C9C00",
"W  c #848400",
"Q  c #706C00",
"!  c #585400",
"~  c #404000",
"^  c #D0FC5C",
"/  c #C4FC40",
"(  c #B4FC20",
")  c #A0FC00",
"_  c #90E400",
"`  c #80CC00",
"'  c #74B400",
"]  c #609C00",
"[  c #D8FCD8",
"{  c #BCFCB8",
"}  c #9CFC9C",
"|  c #80FC7C",
" . c #60FC5C",
".. c #40FC40",
"X. c #20FC20",
"o. c #00FC00",
"O. c #00FC00",
"+. c #00EC00",
"@. c #00E000",
"#. c #00D400",
"$. c #04C800",
"%. c #04BC00",
"&. c #04B000",
"*. c #04A400",
"=. c #049800",
"-. c #048800",
";. c #047C00",
":. c #047000",
">. c #046400",
",. c #045800",
"<. c #044C00",
"1. c #044000",
"2. c #D8FCFC",
"3. c #B8FCFC",
"4. c #9CFCFC",
"5. c #7CFCF8",
"6. c #5CFCFC",
"7. c #40FCFC",
"8. c #20FCFC",
"9. c #00FCFC",
"0. c #00E4E4",
"q. c #00CCCC",
"w. c #00B4B4",
"e. c #009C9C",
"r. c #008484",
"t. c #007070",
"y. c #005858",
"u. c #004040",
"i. c #5CBCFC",
"p. c #40B0FC",
"a. c #20A8FC",
"s. c #009CFC",
"d. c #008CE4",
"f. c #007CCC",
"g. c #006CB4",
"h. c #005C9C",
"j. c #D8D8FC",
"k. c #B8BCFC",
"l. c #9C9CFC",
"z. c #7C80FC",
"x. c #5C60FC",
"c. c #4040FC",
"v. c #2024FC",
"b. c #0004FC",
"n. c #0000FC",
"m. c #0000EC",
"M. c #0000E0",
"N. c #0000D4",
"B. c #0000C8",
"V. c #0000BC",
"C. c #0000B0",
"Z. c #0000A4",
"A. c #000098",
"S. c #000088",
"D. c #00007C",
"F. c #000070",
"G. c #000064",
"H. c #000058",
"J. c #00004C",
"K. c #000040",
"L. c #282828",
"P. c #FCE034",
"I. c #FCD424",
"U. c #FCCC18",
"Y. c #FCC008",
"T. c #FCB400",
"R. c #B420FC",
"E. c #A800FC",
"W. c #9800E4",
"Q. c #8000CC",
"!. c #7400B4",
"~. c #60009C",
"^. c #500084",
"/. c #440070",
"(. c #340058",
"). c #280040",
"_. c #FCD8FC",
"`. c #FCB8FC",
"'. c #FC9CFC",
"]. c #FC7CFC",
"[. c #FC5CFC",
"{. c #FC40FC",
"}. c #FC20FC",
"|. c #FC00FC",
" X c #E000E4",
".X c #C800CC",
"XX c #B400B4",
"oX c #9C009C",
"OX c #840084",
"+X c #6C0070",
"@X c #580058",
"#X c #400040",
"$X c #FCE8DC",
"%X c #FCE0D0",
"&X c #FCD8C4",
"*X c #FCD4BC",
"=X c #FCCCB0",
"-X c #FCC4A4",
";X c #FCBC9C",
":X c #FCB890",
">X c #FCB080",
",X c #FCA470",
"<X c #FC9C60",
"1X c #F0945C",
"2X c #E88C58",
"3X c #DC8854",
"4X c #D08050",
"5X c #C87C4C",
"6X c #BC7848",
"7X c #B47044",
"8X c #A86840",
"9X c #A0643C",
"0X c #9C6038",
"qX c #905C34",
"wX c #885830",
"eX c #80502C",
"rX c #744C28",
"tX c #6C4824",
"yX c #5C4020",
"uX c #543C1C",
"iX c #483818",
"pX c #403018",
"aX c #382C14",
"sX c #28200C",
"dX c #600064",
"fX c #006464",
"gX c #006060",
"hX c #00001C",
"jX c #00002C",
"kX c #302410",
"lX c #480048",
"zX c #500050",
"xX c #000034",
"cX c gray11",
"vX c #4C4C4C",
"bX c gray36",
"nX c gray25",
"mX c gray19",
"MX c #343434",
"NX c #D8F4F4",
"BX c #B8E8E8",
"VX c #9CDCDC",
"CX c #74C8C8",
"ZX c #48C0C0",
"AX c #20B4B4",
"SX c #20B0B0",
"DX c #00A4A4",
"FX c #009898",
"GX c #008C8C",
"HX c #008484",
"JX c #007C7C",
"KX c #007878",
"LX c #007474",
"PX c #007070",
"IX c #006C6C",
"UX c #980088",
/* pixels */
"k k k k k k k k k k k k k k k k k y k s d f s f f g g f i d f f h k z k k k k k k k k k k k k k k k k k k k k k k k k k k k k k ",
"k M M M M M M M M M M M M M s z k y h a a d f g f k h g k g g g f k z k y y y y y s z k s s s s s s s s s s h z k M M M M M s z ",
"k M p i t u i i i a u t t t g z k y k k h g h h h k g h k h h h k k z k y u t i i g z k s k g g k h k l k k k z k M y i i O g z ",
"k M s p y p i u i u i t t t g z k i k g f f g k k h g k k h h h k k z k y r t p d g z k s k k k l k l l k h k z k M y y y i g z ",
"k M u p t p i t t i p t y y g z k i h k f g h k k h g f g g k k k k z k y t i d g g z k s l k k l l k l l k k z k M y y y y g z ",
"k M t i t y i t y t t t p s g z k i h g g h g h k k k g g h k h k k z k y p a s d g z k s k k k k k k l k k k z k M i i y y g z ",
"k M t t t t t r t t r i d d g z k i h k g g f g h k k k k k d f h k z k y s a f g g z k s k k k k h k k h h k z k M y y y y g z ",
"k M i u t t t t t t p a f i g z k i h k f g f g f k h g g h s h g k z k y s i s d g z k h k k k k k k k k k k z k M y y i i g z ",
"k M t y t t y t t a s a f p g z k i g g a d f f f h g h g h g g p k z k y f a s f g z k z z z z z z z z z z z z k M y y O y g z ",
"k M t i u u y t t g d a f a g z k f k k k k k k k k k k k k k k k k z k y g d g k g z k k k k k k k k k k k k k k M y i i t g z ",
"k M s a p p i t u d p t s p g z k z z z z z z z z z z z z z z z z z z k y g g k k g z k M M M M M M M M M M i z k M y y t t g z ",
"k M p t p p p t u s p i a u g z k k k k k k k k k k k k k k k k k k k k y s k h f g z k M s s p u s s i u y s z k M y i y i g z ",
"k M y t p y a i a s u i i p g z k i i i i i i i f z k i i i i i i f z k y g k h g g z k M s a p s d d i u r s z k M y y y y g z ",
"k M p i p i a i s f a s d s g z k i h h f f k g k z k i s f d s k k z k y d g d f g z k M s s u a a s y y t s z k M y t t i g z ",
"k M f d i i i p s a a s d s g z k i h h h g g f k z k i f g g d h k z k y d g d d g z k M s a s s s s p a a s z k M t t y f g z ",
"k M p f f p i d d d d a a a g z k i k k h k k h k z k i h h k f h k z k y d s d d g z k M y i p p p p s d s s z k M t t i d g z ",
"k M p h g a s g d d d a a a g z k i k k k k k h k z k i f f h g h k z k y a a d d g z k M p a t y y s f g a s z k M y y i d g z ",
"k M g k d a s d d g d a a d g z k i h k h h h f k z k i g f g h k k z k y d d f d g z k M u a t u i y u p p s z k M M O O f g z ",
"k s g g g g g g g g g g g g g z k i d h s g k g k z k i h g h k k k z k y f g h d g z k i s s s s s s s s s s z k s g g g g g z ",
"k z z z z z z z z z z z z z z z k i s d a g h f k z k i k h g k h k z k y g h k s g z k z z z z z z z z z z z z k z z z z z z z ",
"k k k k k k k k k k k k k k k k k i s p a f f f k z k f k k k k k k z k s g g g g g z k k k k k k k k k k k k k k k k k k k k k ",
"i i i i i i i i i i i i i i f z k i d s f h k k k z k z z z z z z z z k z z z z z z z k i i i i i i i i i i i i i d z k i i i i ",
"h f d d f k l z l k l l z l k z k i g d g k l h k z k k k k k k k k k k k k k k k k k k i l l l k i g g k f p a h g z k i k d g ",
"l h g k k k z z l k l l l k k z k i g f h g k g k z k y y y y y y y y y y y y y y d z k i k k k h a d f k g h g k g z k i g h l ",
"g g g k g g h l l l k k k k k z k i g d g d g f k z k y s a s a a d f d d a a a a g z k i k k f s p a g f f l k k g z k i k l l ",
"h g g k k k l z k k g l k f k z k i d i d f g h k z k y s a a p a d s s d d s d d g z k i g h g h k g g g h l h f g z k i k z l ",
"k k k k k k k k k k k k k k k z k f k k k k k k k z k y f d d s a f d s a f g f g g z k i g h g k k k g h g l k k g z k f k k k ",
"z z z z z z z z z z z z z z z z k z z z z z z z z z k y g d g f f g f d a s d g d g z k i g k l l k f g h h h g g g z k z z z z ",
"k k k k k k k k k k k k k k k k k k k k k k k k k k k y d d g f d d d d s d k g s g z k i k z k g f f g g f g h g g z k k k k k ",
"y y y y y y y y y y y y y y y y y y y y y y y y p z k s g g g g g g g g g g g g g g z k i k k g f f f f f f f g f g z k y y y y ",
"f i p s y d d d i p y y y p t t t t t t t i s d d z k z z z z z z z z z z z z z z z z k i f h h f s d d f f d f f g z k y s i p ",
"s y p d p f s i i s p i i y t y t y t y y p d f d z k k k k k k k k k k k k k k k k k k i s f s f f d d f g f g g g z k y O p O ",
"t t i p p s y i p s p i i s y y y y t y y i s p d z k y y y y y y d z k s s s s s h z k i a d f g f d d f f d f g g z k y s i i ",
"y p p p s s p p y i p p d d t t t t t y y y p y d z k y k k g f a g z k s h k k k k z k d g g g g g g g g g g g g g z k y d O O ",
"y p y y i i s i y p p d d p y y y p p y t y p t d z k y g s p i p g z k s k k l k k z k z z z z z z z z z z z z z z z k y p y i ",
"p s p i p p s p y M p d d y y t y p s t y p y t d z k y u u u t y g z k s l l l k k z k k k k k k k k k k k k k k k k k y s i i ",
"d p i i p s i y y y y i p y y t t i p y t y t t d z k y t a p p s g z k s k l k k k z k M M M M M M M M M M M M M s z k y y y i ",
"d d d d d d d d d d d d d d d d d d d d d d d d d z k y y a p p f g z k s k k k k k z k M t M u t r p t r a t y r a z k p d d d ",
"z z z z z z z z z z z z z z z z z z z z z z z z z z k y t i u y a g z k s k k k k k z k M a p s u t p r r y m y y d z k z z z z ",
"k k k k k k k k k k k k k k k k k k k k k k k k k k k y r t y p g g z k h k h k k k z k M s y M r t t y y t r u a f z k k k k k ",
"s s s h z k t t t t t t t t s z k f y y y y y y s z k y a a p g k g z k z z z z z z z k z z z z z z z z z z z z z z z k k s s s ",
"k l l k z k t a y p f p u a g z k y p u u p p i g z k y s f f g k g z k k k k k k k k k k k k k k k k k k k k k k k k k k s k l ",
"l k l k z k t y t i u t t i g z k y a a d d a i g z k d g g g g g g z k y y y y y y y y y y y y y y s z k p y M M i p z k s k l ",
"k k l k z k t y u i i i t y g z k y i a p d i i g z k z z z z z z z z k y a s g d s s f a p y a f a g z k p y y y y d z k s k k ",
"h k k k z k t t i i y t r u g z k y s s f d s g g z k k k k k k k k k k y p d g s a s a p a p d d i g z k p y y i M d z k s k k ",
"g k l k z k t t p d u i a p g z k y s p s p s k g z k y y y y y y p z k y u s g s d d a d p i i p i g z k p y y y y d z k s k h ",
"g l k k z k t i d g d s s i g z k y f s h a f h g z k y i y M y M d z k y p s f g f d a i t a d i p g z k i y M M y d z k s h s ",
"l l k k z k t a s d d i y t g z k y d h h i d d g z k y i s y y y d z k y p s s f s a a y a f f a s g z k i y M y y d z k s k k ",
"z z k k z k t a f g f f a i g z k y f f s p f s g z k y d d M M M d z k y f s d f s s f y s a u p a g z k y y y M y d z k s k z ",
"l k g k z k t i s d h g a i g z k y d s d g d s g z k y d p y y y d z k y a u s f f g h d f h g g s g z k i y y M M d z k s l k ",
"k g g k z k t a s f f f a r g z k y d f g f d s g z k y d y y M y d z k y p s g f f g s d f h g g g g z k i y M M M d z k s h g ",
"k k k k z k t d g k h g p r g z k s g g g g g g g z k p d d d d d d z k y d g h f f g p f h h h k h g z k y M M M y d z k h k k ",
"z z z z z k t g k k f f a i g z k z z z z z z z z z k z z z z z z z z k d g g g g g g g g g g g g g g z k p d d d d d z k z z z ",
"k k k k k k t k h f f s t y g z k k k k k k k k k k k k k k k k k k k k z z z z z z z z z z z z z z z z k z z z z z z z k k k k ",
"M M M i z k t k h g d p i p g z k y y y y y y y y y y y y y y y y s z k k k k k k k k k k k k k k k k k k k k k k k k k k M M M ",
"s p a s z k t g d f a u p s g z k y g d g a p p s i s d h g k h k k z k y y y y y y y y y y y y y y y y y y y y y y s z k M s a ",
"p y y s z k t g d d a p a f g z k y f g f s p u f a s f f f k k k k z k y p s a a s a a a d s d f d d g f f f d i u g z k M a a ",
"i i y s z k t s d d s a d f g z k y f k k f s p a g f f l k k h h k z k y a s p p a p p p d s g f d s a s a a a y u g z k M s s ",
"t u t s z k t a d d i u f d g z k y d g h g h k g g g h l h h s g k z k y p p s s a p p a d d g f d d a s a g s u u g z k M s s ",
"M r t s z k t d f d d f h s g z k y g g h g h h k g g h l k d a g k z k y a s s d a a p a d d d d d d s s s f s s f g z k M a p ",
"r t i s z k t g h d d f f s g z k y h g k k g k k h h g l k p a f k z k y a p a s i p a p d s s s d f d a a a i a s g z k M i t ",
"i p a s z k t h k s f d g g g z k y h k z k l l k f g g f g s f h k z k y a a p p p a p a d d s d d d f d g g d s d g z k M r t ",
"s s s s z k s g g g g g g g g z k y g k k k k g f f f f f f f g k k z k s g g g g g g g g g g g g g g g g g g g g g g z k i s s ",
"z z z z z z z z z z z z z z z z k y h f g k g f d f f g d f f g k k z k z z z z z z z z z z z z z z z z z z z z z z z z z z z z "
};
