/* XPM */
static char *_578841908755[] = {
/* columns rows colors chars-per-pixel */
"64 64 182 2 ",
"   c #7D5557",
".  c #7C5758",
"X  c #775A5B",
"o  c #7A5A5B",
"O  c #795F60",
"+  c #776162",
"@  c #7A6162",
"#  c #BF2A2F",
"$  c #BF2B30",
"%  c #AD363B",
"&  c #A53B3E",
"*  c #AA393D",
"=  c #B33236",
"-  c #BB3135",
";  c #B53438",
":  c #B93539",
">  c #B3383D",
",  c #BD393E",
"<  c #DE161D",
"1  c #F6060E",
"2  c #FF020B",
"3  c #EC0D15",
"4  c #FE0710",
"5  c #F50B13",
"6  c #FF0B14",
"7  c #F50F18",
"8  c #FF0F18",
"9  c #E61017",
"0  c #E3141B",
"q  c #EC131B",
"w  c #E0181E",
"e  c #F3131B",
"r  c #FF131C",
"t  c #FD181F",
"y  c #CE1F25",
"u  c #D31C23",
"i  c #DC1B22",
"p  c #E41C24",
"a  c #EC1C24",
"s  c #FF1720",
"d  c #F41C23",
"f  c #FF1B24",
"g  c #FF1F28",
"h  c #CC2227",
"j  c #C6252B",
"k  c #C3292E",
"l  c #C8282D",
"z  c #D92127",
"x  c #D3232A",
"c  c #DA232A",
"v  c #DD292F",
"b  c #C32D32",
"n  c #CD2D33",
"m  c #D72C33",
"M  c #C53337",
"N  c #C9353A",
"B  c #C9373D",
"V  c #C33A3F",
"C  c #D03035",
"Z  c #D9363B",
"A  c #E3222A",
"S  c #ED2128",
"D  c #F42026",
"F  c #FF2027",
"G  c #F3232B",
"H  c #FF232B",
"J  c #FF282F",
"K  c #ED2C33",
"L  c #FF2730",
"P  c #F42B32",
"I  c #FF2C33",
"U  c #E4353B",
"Y  c #EC333A",
"T  c #FF3037",
"R  c #F6323A",
"E  c #FF343B",
"W  c #FF383F",
"Q  c #9E3F43",
"!  c #A43D41",
"~  c #AD3E41",
"^  c #B33E42",
"/  c #BB3C41",
"(  c #C33E43",
")  c #C83E43",
"_  c #E33B41",
"`  c #EC3D43",
"'  c #F63D43",
"]  c #FF3C43",
"[  c #8D4B4E",
"{  c #9C4245",
"}  c #934749",
"|  c #9C4649",
" . c #93494C",
".. c #9A4A4D",
"X. c #874E50",
"o. c #8A4E50",
"O. c #924F52",
"+. c #994E51",
"@. c #835355",
"#. c #8C5254",
"$. c #825759",
"%. c #8B5759",
"&. c #825B5C",
"*. c #935254",
"=. c #9F5659",
"-. c #9A5A5D",
";. c #A54246",
":. c #AC4044",
">. c #A14649",
",. c #A44A4D",
"<. c #AA494D",
"1. c #B04145",
"2. c #B3484C",
"3. c #A44E51",
"4. c #A94D50",
"5. c #B94D51",
"6. c #A45255",
"7. c #AA5356",
"8. c #A2595C",
"9. c #AB585B",
"0. c #B8565A",
"q. c #865F60",
"w. c #AD5D60",
"e. c #B75D61",
"r. c #846162",
"t. c #8C6062",
"y. c #916062",
"u. c #C34145",
"i. c #C4464B",
"p. c #C8474C",
"a. c #C44C51",
"s. c #D34B50",
"d. c #D84A50",
"f. c #C45559",
"g. c #E6444A",
"h. c #ED454B",
"j. c #FF4047",
"k. c #F34148",
"l. c #FF444B",
"z. c #FF484F",
"x. c #E54E53",
"c. c #F54E53",
"v. c #FF4C53",
"b. c #EC5459",
"n. c #E95A5F",
"m. c #FF5057",
"M. c #F4575D",
"N. c #FF545B",
"B. c #FF595E",
"V. c #D25C60",
"C. c #ED5D62",
"Z. c #FF5D62",
"A. c #FF6166",
"S. c #FF656A",
"D. c #FF696E",
"F. c #FF6D72",
"G. c #FF7176",
"H. c #FF757A",
"J. c #FF797E",
"K. c #FF7D82",
"L. c #FF8186",
"P. c #FF858A",
"I. c #FF8A8E",
"U. c #FF8E92",
"Y. c #FF9296",
"T. c #FF969A",
"R. c #FF9A9E",
"E. c #FF9EA1",
"W. c #FFA2A5",
"Q. c #FFA6A9",
"!. c #FFAAAD",
"~. c #FFAEB1",
"^. c #FFB2B5",
"/. c #FFB6B9",
"(. c #FFBABD",
"). c #FFBEC1",
"_. c #FFC3C5",
"`. c #FFC7C9",
"'. c #FFCACC",
"]. c #FFCFD1",
"[. c #FFD3D4",
"{. c #FFD7D8",
/* pixels */
"{.[.].'.`._.(.(.^.~.!.W.E.T.Y.I.P.L.J.H.F.S.S.Z.N.m.v.l.l.] E E I H F g f t r 8 8 6 4 4 2 2 2 2 2 2 2 2 2 2 2 2 4 4 6 6 r r t t ",
"[.].'.`._.).(./.^.!.Q.W.R.T.Y.I.P.K.H.H.F.S.Z.Z.N.v.v.l.] E E I L L F f f t 8 8 6 4 4 4 4 2 2 2 2 2 2 2 2 2 2 2 4 4 6 r r r t F ",
"[.'.`.`._.(.(.^.~.!.Q.R.T.Y.U.P.L.J.H.G.F.S.Z.B.N.v.l.l.] ] E I L H F g f r r 6 6 6 4 4 2 2 2 2 2 2 2 2 2 2 2 4 4 4 6 6 8 r t F ",
"'.`._._.(./.^.~.Q.Q.E.R.T.Y.I.L.K.J.G.F.S.A.Z.N.m.v.l.] ] E E I L J F g s r r 8 4 4 4 2 2 2 2 2 2 2 2 2 2 2 2 4 4 6 6 r r t f f ",
"`.`._.(.(./.^.!.Q.W.R.T.Y.I.P.L.K.H.F.D.S.A.B.m.v.z.l.] ] E I I L F f f t r 8 6 4 4 4 4 2 2 2 2 2 2 2 2 2 2 2 4 4 6 6 8 r t f g ",
"_._.(./.^.^.!.Q.W.E.R.Y.U.I.P.K.J.G.F.D.A.Z.N.m.v.l.l.] ] R I L H g f f r r 8 6 4 4 4 4 2 2 2 2 2 2 2 2 2 2 2 4 4 6 8 8 r t f g ",
").(.(./.^.!.!.Q.E.R.T.Y.I.P.L.J.H.G.D.S.Z.Z.M.c.c.h.h.` ` Y Y K K G d f d r 8 6 4 4 2 2 2 2 2 2 2 2 2 2 2 2 2 4 6 6 6 r r t f g ",
"(././.^.!.Q.Q.E.R.T.Y.I.I.L.K.H.G.F.S.A.Z.M.n.f.9.7.7.6.3.3.3.<.1.^ , M n x p q 5 4 2 2 2 2 2 2 2 2 2 2 2 2 2 4 6 6 8 r r f f F ",
"/.^.^.!.Q.W.W.R.T.Y.U.I.L.K.J.G.F.D.S.C.n.f.-.r.@ O O O O o O O O $.$.$.@.O.| > h q 1 2 2 2 2 2 2 2 2 2 2 2 4 4 6 6 8 r t t g F ",
"^.^.Q.Q.Q.W.R.T.Y.U.I.L.K.J.H.G.F.S.A.n.w.t.@ @ @ q.O &.&.&.&.o o o o o o o X    .- 0 1 2 2 2 2 2 2 2 2 4 2 4 6 6 8 8 r t f F H ",
"!.Q.Q.W.R.R.T.Y.U.I.L.L.J.H.G.F.S.A.C.e.t.+ @ y.7.5.i.i.u.u.( / ^ 1.;.| ..o.@.  @.{ h 5 2 2 2 2 2 2 2 2 2 4 4 4 6 8 r r t f F H ",
"Q.Q.W.R.R.T.Y.I.I.P.L.J.J.G.F.D.S.A.V.y.+ @ 8.s.g.' R R P P G D d a a a p u b * { % u 1 2 2 2 2 2 2 2 2 4 2 4 6 6 8 r t f g F H ",
"W.W.R.T.Y.Y.I.I.L.L.K.H.G.F.D.S.Z.C.w.@ @ -.d.' E E E L L H H f f s r 8 6 6 7 q i 0 3 2 2 2 2 2 2 2 2 2 2 4 4 6 6 8 r t f f F J ",
"R.R.T.Y.Y.I.I.L.L.K.H.G.F.D.S.A.Z.V.y.@ q.f.k.] E E I I H H g f s t r 6 6 5 4 4 1 2 2 2 2 2 2 2 2 2 2 2 4 4 6 6 8 r r t f g H L ",
"T.Y.Y.U.I.I.L.K.J.H.G.F.D.S.A.Z.M.0.@ @ -.g.' E E E I L F F f s r r 8 8 6 4 4 2 2 2 2 2 2 2 2 2 2 2 2 2 2 4 6 6 8 r t t F F H L ",
"Y.U.I.I.L.L.K.J.H.G.F.D.S.A.Z.B.M.9.@ O 0.k.W E E I L H g f f t r r 6 6 6 4 2 4 2 2 2 2 2 2 2 2 2 2 2 2 4 4 6 6 r r t f g H L I ",
"I.I.P.L.K.K.J.H.G.F.S.S.Z.Z.N.N.b.-.+ q.a.' ] T T L J F F g s t r 8 6 6 4 4 2 2 2 2 2 2 2 2 2 2 2 2 2 4 4 6 6 8 r t t f F H L T ",
"P.L.L.K.J.H.G.F.F.S.S.A.Z.Z.N.v.x.-.O q.p.R E I I L H F f f r r r 6 6 6 4 2 2 2 2 2 2 2 2 2 2 2 2 2 2 4 4 6 6 r 8 t f f F H L T ",
"K.K.J.H.H.G.F.D.S.S.Z.Z.N.N.v.v.x.-.+ &.p.R T I L H g f f t r r 6 6 4 4 4 2 2 2 2 2 2 2 2 2 2 2 2 2 2 4 6 6 6 8 r t t F F J I T ",
"J.H.H.G.F.D.D.S.A.Z.Z.N.N.v.v.l.g.=.O q.i.R I L F F g f t r 8 8 6 6 4 4 4 2 2 2 2 2 2 2 2 2 2 2 2 4 4 4 4 6 r r t t g F H I I E ",
"H.G.F.F.D.S.S.Z.Z.N.N.m.v.v.l.l.h.7.O @ 4.Y I H F g f t t r 8 8 6 6 4 4 2 2 2 2 2 2 2 2 2 2 2 2 2 4 4 6 6 r 6 t t f F H L I T E ",
"F.F.D.S.S.A.Z.B.B.N.m.v.z.l.l.] ' p.%.o %.) P H g f f t r 8 8 6 6 4 4 4 2 2 2 2 2 2 2 2 2 2 2 2 2 4 4 6 6 6 r t f f F H J I E E ",
"S.S.S.Z.Z.Z.B.N.m.v.v.z.l.l.] ] E _ 7.o o *.B G f f s r 8 8 8 6 4 4 2 2 2 2 2 2 2 2 2 2 2 2 2 2 4 4 4 6 r r r t f g H H L T E W ",
"A.A.Z.Z.N.N.N.v.v.z.l.l.j.] ] E E R u.*.o o *.N S d t r 8 6 6 4 4 4 4 2 2 2 2 2 2 2 2 2 2 2 4 2 4 4 6 6 8 r r t f g H J I T E ] ",
"Z.B.N.N.N.v.v.v.v.l.l.] ] ] E E I I K u.o.o o #.1.m a e 8 6 6 4 4 2 2 2 2 2 2 2 2 2 2 2 2 2 2 4 4 4 6 8 6 r t f f F L L T E E ] ",
"N.N.m.N.v.v.l.l.l.] ] ] E E E I I L H P ( O.o o o o.! n i q 5 4 4 2 2 2 2 2 2 2 2 2 2 2 2 2 4 4 4 6 6 6 t t t f F F L I E E ] j.",
"m.v.v.v.v.l.] l.] ] ] E E I I I J H F H D C | @.o o o @.} * l p 5 1 2 2 2 2 2 2 2 2 2 2 2 4 4 4 6 6 r r r t f g H H I I E W ] j.",
"v.z.l.l.l.l.] ] ] E E T E I L H H F g f f d A M | o.  o X . X.{ = u 3 1 2 2 2 2 2 2 2 2 2 2 4 4 4 r 6 r t s g F H L I E E ] ] l.",
"l.l.] l.] ] ] E E E E I L L H H H f f s s r r e p n ~ } X.. X .   } & y 9 1 2 2 2 2 2 4 4 4 4 6 6 6 r t t f g F H L I E E ] l.l.",
"j.] ] ] ] E E E T I I L H H F g g f s t r r r 6 6 5 q i l ! } @.. X   X.& j 9 1 2 2 2 2 4 4 6 6 r r r t t g F H L I E E ] j.l.z.",
"] ] E E E E T I I L L H H g g f t s r r 8 8 6 6 6 4 4 4 1 3 i $ Q X.  X   X.& y 3 1 2 4 4 4 6 6 8 r r s g g F J I E E ] ] l.l.v.",
"E E E T I I I L L H H F F g f t t r r 8 8 6 6 6 4 4 4 2 2 2 1 1 9 h & [   X   [ = 0 4 4 4 6 6 8 r r t f F H H L I E E ] j.l.z.m.",
"T T I I I L J H H F F f f t t t r 8 8 8 6 6 4 4 2 2 2 2 2 2 2 2 1 1 9 y % X.. . @.; 0 6 4 6 6 r r t f f F H L L E E ] ] l.l.v.N.",
"I I L J H H H F g g f f t r r t r 8 8 6 6 4 4 4 4 2 2 2 2 2 2 2 2 2 2 1 3 h Q   X @.: 0 6 r 8 r t s f g H L I E E E ] j.l.v.m.N.",
"J H H H H F F f f t t t t r r 6 6 6 6 6 4 4 4 2 2 2 2 2 2 2 2 2 2 2 2 2 1 1 < & @.X X.M q r r r t f g g H L I E E ] ] l.z.v.m.B.",
"H H F f g g f t t t r r 8 8 r 6 6 6 4 4 4 4 2 2 2 2 2 2 2 2 2 2 2 2 2 2 2 1 1 < !   X  .c e r t f g F H L I E E ] ] l.l.v.m.N.B.",
"F f f f t t t t r r r 8 r 6 6 6 6 6 4 4 2 2 2 2 2 2 2 2 2 2 2 2 2 2 2 2 2 2 4 5 x } X @.: d t f f g H H I T E E ] j.l.z.m.N.B.A.",
"f f f t t r r r r 8 8 6 6 6 6 4 4 4 4 2 2 2 2 2 2 2 2 2 2 2 2 2 2 2 2 2 2 4 4 4 e : @.X ..c f f g F J L I E E ] ] l.z.v.m.B.B.A.",
"t r r r r r r 8 8 8 6 6 4 6 4 4 4 4 2 2 2 2 2 2 2 2 2 2 2 2 2 2 2 2 2 2 4 4 4 4 7 z *.o @.C d F H H I I E E ] ] l.l.v.m.B.B.A.S.",
"r r r r 8 8 6 6 6 6 6 4 4 6 0 w 3 1 2 2 2 2 2 2 2 2 2 2 2 2 2 2 2 2 4 4 4 4 6 6 8 a ;.. . , G H H L I E E W ] j.l.v.m.N.B.B.S.D.",
"6 r r 6 8 6 6 6 4 4 4 4 4 3 k * k 5 2 2 2 2 2 2 2 2 2 2 2 2 2 2 2 2 2 4 4 6 6 6 8 d ^ o o 1.G H H I T E W W j.l.z.v.N.N.A.A.S.D.",
"6 6 6 6 6 4 4 6 4 4 4 4 4 9 ! X.{ < 2 2 2 2 2 2 2 2 2 2 2 2 2 2 4 4 4 4 6 6 8 r r e , . o ,.K J I T T W W j.l.l.v.N.N.B.A.S.D.G.",
"6 6 4 4 4 4 4 4 2 2 2 2 2 9 !   @.# 1 2 2 2 2 2 2 2 2 2 2 2 2 2 4 4 4 6 6 8 r r r d B $.O ,.K I I E W W j.j.l.m.m.N.B.A.S.D.G.G.",
"4 4 4 4 4 4 4 2 2 2 2 2 1 1 =   X Q < 1 2 2 2 2 2 2 2 2 2 2 2 4 4 6 6 6 8 8 r t t D V o o +.K I E E W j.j.z.z.m.N.B.Z.A.D.D.G.H.",
"4 4 2 2 2 4 2 2 2 2 2 2 2 1 u }     = < 1 2 2 2 2 2 2 2 2 4 4 4 6 6 6 8 r r t t D m ,.o o <.Y T E W ] j.l.z.m.N.N.B.A.S.D.G.H.H.",
"2 2 2 2 2 2 2 2 2 2 2 2 2 1 3 =       % < 3 1 1 2 2 2 2 4 4 4 4 6 6 6 r e t S A V ..o + &.u.R E W ] l.l.z.v.m.N.Z.A.S.D.G.H.H.L.",
"2 4 2 2 2 2 2 2 2 2 2 2 2 2 1 < &   X   } = y 9 3 7 5 7 7 6 7 e e q a A v M ^ +.%.o O &.<.U W W ] j.l.z.m.m.N.B.A.S.D.G.H.H.L.L.",
"2 2 2 2 2 2 2 2 2 2 2 2 2 2 2 1 < = X.. X   [ } & - b $ b $ - , ^ ~ >...#.$.o o O o *.2._ W W ] ] l.z.v.m.N.Z.B.S.D.F.H.H.J.L.P.",
"2 2 2 2 2 2 2 2 2 2 2 2 2 2 2 2 1 9 b { X.X X X .   @.    @.. .   X o o o O o &.*.<.u.Y R W ] j.l.z.v.m.N.Z.Z.S.S.F.G.H.K.K.P.U.",
"2 2 2 2 2 2 2 2 2 2 2 2 2 2 2 2 1 4 5 < $ !  .@.  . . . o o o . o &.. $.#...<.u.Z R E E W ] j.l.z.v.m.N.B.Z.A.D.F.G.H.K.K.L.P.U.",
"2 2 2 2 2 2 2 2 2 2 2 2 2 2 2 2 2 2 2 4 5 0 i n : ~ ! ;.;.;.;.:.1., , B Z U K P T E E W ] j.l.z.z.m.N.B.Z.A.D.D.F.G.J.K.L.P.U.Y.",
"2 2 2 2 2 2 2 2 2 2 2 2 2 2 2 2 2 4 4 4 4 6 5 7 e q a a a a S a G G H G G J I T E E ] ] j.l.z.v.m.N.B.Z.A.S.D.G.H.J.K.L.P.U.Y.T.",
"2 2 2 2 2 2 2 2 2 2 2 2 2 2 2 4 4 4 4 4 6 6 6 6 8 7 r r r d f f F F H J L I T E E ] ] j.l.z.v.m.N.B.Z.A.S.D.G.G.J.K.P.P.U.Y.T.R.",
"2 2 2 2 2 2 2 2 2 2 2 4 2 2 4 4 4 6 6 4 6 6 8 8 r r s s s f g F F J J I I T E W ] ] l.l.z.v.m.N.B.Z.A.D.D.G.H.H.K.L.P.I.U.T.R.E.",
"2 2 2 2 2 2 2 2 4 4 4 4 4 4 4 4 6 6 6 6 r r r r r t s f f F H H H L I I E E W ] ] l.l.z.v.m.N.B.A.A.S.D.G.G.J.J.K.P.I.U.Y.R.R.W.",
"2 2 2 2 2 2 2 4 4 4 4 4 4 6 4 6 6 6 r 6 r r r t s f f f g F H L I I T E E W ] j.l.l.v.v.m.N.Z.Z.A.S.D.G.G.J.K.L.P.I.U.Y.R.R.W.Q.",
"2 2 4 2 2 4 4 4 4 4 6 6 6 6 6 8 6 r r r r t t s f g g g H H L I T T E E ] ] j.l.z.v.v.N.N.Z.Z.A.S.F.F.H.H.K.L.P.I.U.Y.T.E.W.Q.Q.",
"4 4 4 4 4 6 4 6 4 4 6 6 8 8 8 8 r r r t s s g g g F H L L I I T E E W ] ] l.l.z.v.m.N.N.Z.Z.S.D.F.F.H.J.K.L.P.I.Y.Y.T.R.W.Q.!.~.",
"4 4 6 6 6 6 6 6 8 6 8 6 8 r r r t r t f f g g F F H L L I T E E E ] ] j.l.l.v.v.m.N.B.Z.A.S.S.D.F.H.J.K.L.P.I.U.Y.T.E.W.Q.!.~.^.",
"6 6 6 6 6 8 6 6 8 r r r r r t t t f f g g F F H L L I T T E E ] ] ] l.l.l.v.v.m.N.B.Z.A.S.D.F.G.H.J.K.L.P.I.U.T.T.R.W.Q.Q.~.^./.",
"8 6 6 8 6 8 r r r r t t t t t F g g g F H H J L I I I E E E ] ] ] l.l.v.v.m.N.N.Z.Z.A.S.D.F.G.H.J.K.L.P.I.Y.Y.T.R.W.Q.Q.!.^./.(.",
"r r r r r r r r t t t t f f F F F F H H J J I I E E E W ] ] ] l.l.z.v.v.m.N.B.Z.A.A.S.D.F.H.H.K.K.P.I.I.Y.Y.T.E.W.Q.!.!././.(.(.",
"r r t r t t t t f f f F F F F F H J J J I I T E E W W ] ] l.l.l.v.v.v.N.N.Z.Z.A.S.D.F.F.H.H.J.K.L.P.I.Y.T.T.R.W.Q.Q.!.^./.(.(._.",
"t t t f f f f g f f F F H F J J J I I T T E E W W ] ] j.l.l.z.v.v.N.N.N.Z.Z.S.S.D.F.G.H.J.K.L.P.I.U.U.T.R.R.W.Q.!.!.^./.(.(._.`."
};
