/* XPM */
static char *_578841927422[] = {
/* columns rows colors chars-per-pixel */
"64 64 101 2 ",
"   c #434343",
".  c #484747",
"X  c #474847",
"o  c #484847",
"O  c #474748",
"+  c #484748",
"@  c #474848",
"#  c #4B4B4B",
"$  c #504F4F",
"%  c #4F504F",
"&  c #50504F",
"*  c #4F4F50",
"=  c #504F50",
"-  c #4F5050",
";  c #535353",
":  c #575857",
">  c #585857",
",  c #575758",
"<  c #585758",
"1  c #5B5B5B",
"2  c #605F5F",
"3  c #5F605F",
"4  c #60605F",
"5  c #5F5F60",
"6  c #605F60",
"7  c #5F6060",
"8  c #636363",
"9  c #686767",
"0  c #676867",
"q  c #686867",
"w  c #676768",
"e  c #686768",
"r  c #676868",
"t  c #6C6C6C",
"y  c #706F6F",
"u  c #6F706F",
"i  c #70706F",
"p  c #6F6F70",
"a  c #706F70",
"s  c #6F7070",
"d  c #737373",
"f  c #787777",
"g  c #787877",
"h  c #777778",
"j  c #787778",
"k  c #777878",
"l  c #7B7B7B",
"z  c #7F807F",
"x  c #80807F",
"c  c #7F7F80",
"v  c #807F80",
"b  c #7F8080",
"n  c #838383",
"m  c #888787",
"M  c #888887",
"N  c #888788",
"B  c #878888",
"V  c #8B8B8B",
"C  c #8F908F",
"Z  c #90908F",
"A  c #8F8F90",
"S  c #908F90",
"D  c #939393",
"F  c #979897",
"G  c #989897",
"H  c #979798",
"J  c #989798",
"K  c #979898",
"L  c #9B9B9B",
"P  c #A09F9F",
"I  c #9FA09F",
"U  c #A0A09F",
"Y  c #A09FA0",
"T  c #A3A3A3",
"R  c #A7A8A7",
"E  c #A8A8A7",
"W  c #A7A7A8",
"Q  c #A8A7A8",
"!  c #ABABAB",
"~  c #B0B0AF",
"^  c #AFAFB0",
"/  c #AFB0B0",
"(  c #B4B4B4",
")  c #B8B7B8",
"_  c #BBBBBB",
"`  c #C0C0BF",
"'  c #BFBFC0",
"]  c #BFC0C0",
"[  c #C3C3C3",
"{  c #C8C7C8",
"}  c #C7C8C8",
"|  c #CBCCCB",
" . c #D0CFD0",
".. c #D3D4D4",
"X. c #D7D8D7",
"o. c #D8D8D7",
"O. c #DCDCDC",
"+. c #E5E5E5",
"@. c #E8E7E7",
"#. c #E9EAEA",
"$. c #F4F4F4",
/* pixels */
"+.+.O.O.O..... .| } [ ` _ ) ( ~ Q Q T L L H Z V V n l l h y t q q 8 7 1 > , ; ; # # # X O                                 # & ; ",
"O.O.O.O..... .| } { [ _ _ ) ( ! Q T T L H D V V n n l k d d t q 8 8 5 > > ; ; # # # o O                                   # ; ; ",
"O.O.O.....| | | { [ ` _ ) ( ~ ! R T L L D D V M n n l g d p t q 8 8 1 1 , ; ; # # # o O O                               # # & ; ",
"O.o.......| | } [ ` _ ) ( ( ! E R U L H D V V m n x k g d a q q 8 6 1 > ; ; ; # # # X                                   & ; ; ; ",
"........| | [ [ ` _ ) ) ( ! ! R T L L H D V M n x l h d t t q 8 8 5 > > ; ; - # @ @ X O                         O O # # # & ; ; ",
"....| | | [ [ [ ` ) ) ( ! ! R T L L H D V B m n x k h d y t 8 8 5 1 1 < ; ; - # O   O O                           O # # & ; ; : ",
"| | | | [ [ ` _ ) ) ( ^ ! R T I L F D D V V n n l j h y t q 8 8 5 1 > < ; ; # #                                 O . # # % ; ; > ",
"| | } [ [ ` _ _ ) ( ( ! R R T L L D D V B m n l k f d t t q 8 8 1 > ; ; & ; # #                                 . o # # ; ; ; > ",
"} } [ ` ` _ ) ) ( / ! Q R T L L F D V V m n x l j d d t q 8 8 6 1 > , ; ; # # # o O                             X # # # ; ; ; > ",
"[ ] ` ` ) ) ( ) ! ! R R T L L H D C V V m b l g h d t t q 8 6 6 1 < ; ; ; # # # . O                 O o     O O O # # ; ; ; , > ",
"` _ _ ) ) ( ( ! ! R R T L L H D S V V n z l l h d t t q 8 8 1 1 > ; ; = # # # X . O               ; h y ;   O O # # # # ; ; > 1 ",
"_ ) ) ( ( ~ ! Q R T T L L H D D V m m n l l k h d t q w 8 6 5 > < ; ; - # # o O O               > L ` ! i # O o O # # ; ; , > 1 ",
") ( ( / ~ ! ! R T T L L J H Z V V m n n k h d d t t q 8 8 1 > > ; ; ; # # # O O             O ; D ..+.` d # O o # # # - ; , > 5 ",
"( ~ ~ ! Q E T T L L L H H V V V m n l l k h d p t q 8 8 8 1 1 , ; ; ; # # # O O             # l | +.O.R 1 X O o # # ; ; ; > 1 1 ",
"! ! ! R E T T L L L H D D V V m n z l g h d d t q 8 8 8 1 1 , ; ; ; # # # o O O             8 ) +.+.) d #   . # # # % ; , > 1 8 ",
"R R R T U U L G H H D V V M m n n l k h d d t t q 8 8 1 1 > ; ; ; # # # o O O             # G O.@.| n ; O O # # # ; ; ; , > 1 8 ",
"R T T L L L H H H Z V V V m n c l k h d s t t e 8 8 1 1 1 , ; ; & # # # O               O d } #.O.T : O O O X # # & ; ; 1 1 1 8 ",
"I L L L L H D C Z V V M n x n l k h d d t t q 8 8 7 1 1 , ; ; - # # @ #                 > R +.+.[ t o O O # # # # ; ; 1 , 1 7 8 ",
"L L H H H D C V V M M n n l l k f d a t q w 8 8 7 1 > 1 ; ; ; ; # # # . O             # v ..@...V & O O O o # # ; ; ; > 1 1 8 8 ",
"H D D C C V V V M n n x l k k k d y t t e 8 8 8 1 1 , ; ; ; # # # # o .               6 ~ +.+.~ 8 o   O # # # $ - ; ; > 1 7 8 8 ",
"C D C V V B m n n x l x l k h d s t q w 8 8 5 1 1 > , ; & % # # # # O                 N ..#. .n # O   O o # # ; ; ; 1 1 3 8 8 0 ",
"V V V B m m n n x x l n Z V h s t q w 8 8 6 1 1 > : ; ; & % # # # O O               w _ +.+.R > o   O # # # # & ; ; , 1 7 8 8 q ",
"V m m n n n l l k k l D ( Q n t t 8 8 8 8 1 1 > ; ; ; & $ # # X o X               ; H O.#.} h # O X o o # # & ; ; 1 > 5 8 8 q t ",
"n n n b l l l l h h l T | [ H t w 8 8 5 1 1 > < ; ; & $ # # # O O   O           O t [ +.O.U ;     o # # # % ; ; ; 1 1 5 8 8 t t ",
"c l c l k k k d d d f R ....T t 8 8 1 1 > > , ; ; - # # # # O o O               ; L O.@.[ s X O O O # # * * ; ; ; 1 1 8 8 0 t t ",
"l k k k h d d d y t d L ..O.! u 6 1 1 1 < ; ; ; ; # # # o o O                   d | #.O.K ; O O X # # * * - ; ; 1 1 3 8 8 t t d ",
"h h h d d s p p t q t H ..+._ k 1 1 1 , ; ; ; ; # # # # o X                   # L O.@._ t @ O O o # # # - ; ; 1 1 1 8 8 q t u d ",
"i d d t t t t q q 8 9 m ..#...M 1 1 : ; ; ; # # # # # #                       q [ @.O.D ;   O @ # # # * ; ; 1 > 1 3 8 8 q t t h ",
"t t t t t q q w 8 8 8 k [ #.O.L 8 ; ; ; - - # # # # # O   O                 # H O.@.[ q o O O X # # & ; ; > 1 1 1 8 8 q t t h h ",
"t t q 8 r 8 8 8 8 4 1 q Q +.#.) t ; ; - - # # + # - ; # O                   t [ @.O.H ; O O . # # # % ; ; > 1 1 8 8 q t y d d g ",
"0 8 8 8 8 8 8 1 1 1 1 8 V ..#.| l ; % # # # # # 8 V H l & O               ; H O.@.[ t # O o # # $ # ; ; > > 1 1 8 8 q t t h g k ",
"8 8 8 8 7 1 1 1 1 > > 1 g | #.O.D 1 # # # # # 8 T ..+.[ k #               q ' @.O.L ; X O # # # ; ; ; ; > 1 2 8 8 0 t t d g k l ",
"6 6 1 5 1 1 1 1 > ; ; ; 8 ! +.+.! 1 # # @ # > F o.$.$.@.T ;               S O.@.[ h # O o # # ; - ; ; > 1 1 8 8 8 t t d h h l x ",
"1 1 1 > > ; ; ; ; ; ; ; > Z O.#.} t # # # ; n | #.#.#.#.` 8             6 _ +.+.T > # o # # # % ; ; > > 1 7 8 8 r t t d h j l n ",
"> > > < ; ; ; ; ; ; ; # ; h | @.O.m ; @ # t _ @.+.| ..#...k O           V ..@.| k # # # # # ; & ; , > 1 1 8 8 r t t d h k l n n ",
"; , ; ; ; ; ; ; % * % # # 1 ! +.+.R > # > L O.#.| D ) +.O.D #         O ) +.+.Q > # # # # ; ; ; , > 1 6 8 8 q t t d d h l l n m ",
"; ; ; # ; # ; # # # # # # ; V ..+.} d ; l | @.O.L 8 L O.+.! >       # m ..@. .c ; # # # # ; ; ; > 1 1 8 8 8 q t d d k k x n n V ",
"; * * * # # # # # # # @ o o t [ @.O.H d ) +.+.) q # n ..#.[ d O   O 1 ! +.+.! 8 # # # ; ; ; , < 1 1 6 8 8 q t t d f k l n n N V ",
"# # # # # # . # # O O O   o # M +.+.[ ( O.#. .n # O 8 [ +...m #   # b ..@...m ; # # ; ; ; ; < 1 1 1 8 8 q t p d d g l n n m V A ",
"# # # # . # . O O   O O     O   | +.+.+.#.O.U ; O   ; Q +.+.R ; X > R +.+.) 8 # # # ; ; ; ; 1 1 5 8 8 r t p s d f l l v m V V D ",
"# # . o o O   o                 L O.$.#.+.( w O     O M O.+.` t * l | #...V > = = & ; ; > 1 1 1 8 8 q q t i d k k l n n V V D H ",
"O O O O   O O                   q ( o.X.) d O         t } @.O.Z q Q +.+._ q ; # ; ; ; ; > 1 5 8 8 q q t s d h l l n n m V V D H ",
"  O   O                         # 8 B n 8 O           ; T +.+.[ R ..#.O.D , = ; ; ; > 1 1 7 8 8 w q t i d h k l n n m V V D H L ",
"                                    # + O             # k | @.@.+.#.+.) t ; ; ; ; 1 1 1 1 6 8 w q t t d h f l l n m V V D H K L ",
"                                                    O O 1 H ..#.#.#.| N > ; ; ; : > 1 1 8 8 8 q t p d h k l b n m V V D D L L P ",
"                                                      X # 8 L [  .[ D 8 ; ; , > 1 1 5 8 8 8 r t p d d h k c n m m V D D H L L T ",
"                                                  O O O O # > p k d 1 ; ; < > > 1 7 8 8 r r t p d h g k l n m V V V D F L L T R ",
"                                                O O @ # # # # ; ; ; ; , > > 1 5 7 8 8 8 t t s d d k l l n n m V C D G L L T R Q ",
"                                      .   . o o # . # # # # ; ; ; ; > > 1 1 1 8 8 8 9 t t t d h g l x n n m V Z D H L L T T Q ! ",
"                                    .     . o o # # # # * = ; = , ; 1 1 1 1 4 8 8 q q t y d d k l l n m V V Z D H G L Y R Q ! ( ",
"                                  O O O o o # # # # # ; ; ; ; , , > 1 1 6 8 8 8 q t t i d h k l l n n m V V D G J L Y T Q ! ! ( ",
"                                O . o # # # # # ; = # ; ; ; > > > 1 1 1 8 8 0 q t a y d h j l l n n m V V D H L L Y R R ! ! ( ) ",
"                      X         # # o # # # # # $ ; ; ; 1 ; > 1 1 1 8 8 8 q t t t d d h k l n n m M V C D D L L I T R ! ^ ~ ) ) ",
"                o X X X         # # # # $ = ; ; ; ; ; > > 1 1 1 8 8 8 8 q q t d d h h g l c n m M V C C H L L L T W ! ! ( ( ) _ ",
"                o o o o o #     # # % # ; ; ; ; ; 1 ; 1 1 1 1 8 8 8 8 t t i t d h f k l b n n V V V D H F L L T R Q ! ( ) ) _ ' ",
"                # # # # # # # # ; # ; & ; ; ; 1 > > 1 1 5 8 8 8 w q t t t d d h g l x n n m V V D D H L L T R R ! / / ( ) _ ' [ ",
"O O # # # # # # # # # # ; # & ; ; ; ; ; ; > > 1 1 1 1 8 8 8 w q t t t t d h h k l z n n M V V D H K L L I T R ! ! ( ) ) _ _ [ [ ",
"# # # # # # # # # # # $ & ; ; ; ; , ; , > 1 > 1 1 5 8 8 8 e q t t p d h h g l l z n m m V V D D H L L I T R ! ~ / ) ) ) ` [ } } ",
"# # # * # * # ; ; $ ; ; ; ; ; ; > < > > 1 1 1 8 8 8 8 w q t t t a d d k k l l n n m V V C D D K L L T T R ! ~ / ) ) _ ` [ [ } | ",
"& # - # ; - ; ; ; ; ; ; 1 ; , > 1 1 1 1 5 8 8 8 8 8 q t t t t d h h h k x l n m M V V C D D L L L T R R ! / ~ ) ) ) ` [ [ | | | ",
"; ; ; ; ; ; ; ; , ; > > 1 > 1 1 1 1 8 8 8 8 8 9 t q t a t d d h k k l l n n m m V Z D D G L L U R R Q ! ~ ~ ) ) _ ` ` } } |  . .",
"; ; ; ; ; 1 1 ; > 1 1 1 > 1 1 8 8 8 8 8 8 q q t t y p d h f h k l c b n m m V V V D H H L L T T R Q ! ( ( ) ) _ ` [ } } |  .....",
"< < > > > 1 > 1 1 1 1 1 1 8 8 8 8 8 w q t t t t y d d d k k k l n n n m V V V D D H L L L T T E ! ! ~ ( ) ) _ ` ` } | |  . ...X.",
"1 1 1 1 1 7 1 5 7 8 8 8 8 8 8 w w t q t t a y d d h k k l l v n n m V V V A D D H L L P T R E ! ~ ( ( ) _ _ [ [ [ } | | ....X.O."
};
